<svg xmlns="http://www.w3.org/2000/svg" viewBox="0 0 1200 700" role="img" aria-label="Field maintenance response">
  <defs>
    <linearGradient id="g3" x1="0" y1="0" x2="1" y2="1">
      <stop offset="0%" stop-color="#f0fdf4"/>
      <stop offset="100%" stop-color="#fff7ed"/>
    </linearGradient>
  </defs>
  <rect width="1200" height="700" fill="url(#g3)"/>
  <rect x="0" y="500" width="1200" height="200" fill="#14532d"/>
  <rect x="90" y="230" width="260" height="260" rx="16" fill="#bbf7d0"/>
  <rect x="120" y="260" width="200" height="150" rx="10" fill="#16a34a"/>
  <circle cx="215" cy="470" r="30" fill="#0f172a"/>
  <rect x="420" y="210" width="320" height="280" rx="16" fill="#86efac"/>
  <rect x="460" y="250" width="240" height="130" rx="10" fill="#22c55e"/>
  <circle cx="530" cy="470" r="30" fill="#0f172a"/>
  <circle cx="650" cy="470" r="30" fill="#0f172a"/>
  <rect x="800" y="190" width="300" height="300" rx="16" fill="#fde68a"/>
  <path d="M940 235 L1045 420 L835 420 Z" fill="#f59e0b"/>
  <rect x="930" y="310" width="20" height="75" fill="#7c2d12"/>
  <circle cx="930" cy="470" r="30" fill="#0f172a"/>
  <circle cx="1030" cy="470" r="30" fill="#0f172a"/>
  <text x="90" y="100" fill="#064e3b" font-family="Segoe UI, Arial, sans-serif" font-size="42" font-weight="700">On-Ground Maintenance and Service Delivery</text>
  <text x="90" y="145" fill="#166534" font-family="Segoe UI, Arial, sans-serif" font-size="24">Field teams update proof, status and location in real time</text>
</svg>
