<svg xmlns="http://www.w3.org/2000/svg" viewBox="0 0 1200 700" role="img" aria-label="Public works dashboard">
  <defs>
    <linearGradient id="g2" x1="0" y1="0" x2="1" y2="1">
      <stop offset="0%" stop-color="#ecfeff"/>
      <stop offset="100%" stop-color="#fefce8"/>
    </linearGradient>
  </defs>
  <rect width="1200" height="700" fill="url(#g2)"/>
  <rect x="50" y="70" width="1100" height="560" rx="24" fill="#0f172a"/>
  <rect x="80" y="105" width="1040" height="65" rx="12" fill="#1e293b"/>
  <circle cx="120" cy="138" r="12" fill="#ef4444"/>
  <circle cx="155" cy="138" r="12" fill="#f59e0b"/>
  <circle cx="190" cy="138" r="12" fill="#10b981"/>
  <rect x="95" y="210" width="500" height="170" rx="14" fill="#1d4ed8" opacity="0.85"/>
  <rect x="620" y="210" width="470" height="170" rx="14" fill="#0ea5e9" opacity="0.85"/>
  <rect x="95" y="405" width="300" height="190" rx="14" fill="#334155"/>
  <rect x="415" y="405" width="300" height="190" rx="14" fill="#475569"/>
  <rect x="735" y="405" width="355" height="190" rx="14" fill="#64748b"/>
  <rect x="125" y="442" width="240" height="22" rx="10" fill="#22c55e"/>
  <rect x="125" y="478" width="160" height="22" rx="10" fill="#38bdf8"/>
  <rect x="445" y="442" width="180" height="22" rx="10" fill="#f59e0b"/>
  <rect x="445" y="478" width="210" height="22" rx="10" fill="#eab308"/>
  <rect x="770" y="442" width="280" height="22" rx="10" fill="#f97316"/>
  <rect x="770" y="478" width="190" height="22" rx="10" fill="#fb7185"/>
  <text x="95" y="56" fill="#0f172a" font-family="Segoe UI, Arial, sans-serif" font-size="40" font-weight="700">Government Operations Dashboard</text>
</svg>
