<svg xmlns="http://www.w3.org/2000/svg" viewBox="0 0 1200 700" role="img" aria-label="Urban civic monitoring">
  <defs>
    <linearGradient id="g1" x1="0" y1="0" x2="1" y2="1">
      <stop offset="0%" stop-color="#fff7ed"/>
      <stop offset="100%" stop-color="#e0f2fe"/>
    </linearGradient>
  </defs>
  <rect width="1200" height="700" fill="url(#g1)"/>
  <rect x="0" y="560" width="1200" height="140" fill="#334155"/>
  <circle cx="130" cy="130" r="72" fill="#ff9933" opacity="0.15"/>
  <circle cx="1060" cy="110" r="56" fill="#138808" opacity="0.14"/>
  <rect x="100" y="250" width="180" height="310" rx="14" fill="#1e293b"/>
  <rect x="150" y="300" width="110" height="260" rx="8" fill="#0f172a"/>
  <rect x="330" y="190" width="220" height="370" rx="14" fill="#475569"/>
  <rect x="380" y="250" width="120" height="310" rx="8" fill="#334155"/>
  <rect x="610" y="150" width="250" height="410" rx="14" fill="#64748b"/>
  <rect x="670" y="220" width="125" height="340" rx="8" fill="#475569"/>
  <rect x="910" y="230" width="180" height="330" rx="14" fill="#1f2937"/>
  <rect x="945" y="295" width="110" height="265" rx="8" fill="#111827"/>
  <rect x="120" y="510" width="960" height="22" rx="11" fill="#22c55e" opacity="0.9"/>
  <circle cx="720" cy="521" r="12" fill="#f8fafc"/>
  <circle cx="760" cy="521" r="12" fill="#f8fafc"/>
  <circle cx="800" cy="521" r="12" fill="#f8fafc"/>
  <text x="90" y="95" fill="#1e293b" font-family="Segoe UI, Arial, sans-serif" font-size="42" font-weight="700">Urban Monitoring Grid</text>
  <text x="90" y="135" fill="#475569" font-family="Segoe UI, Arial, sans-serif" font-size="24">City services, road works and drainage response visibility</text>
</svg>
